<?xml version="1.0" encoding="UTF-8" standalone="no"?>
<svg width="24px" height="24px" viewBox="0 0 24 24" version="1.1" xmlns="http://www.w3.org/2000/svg" xmlns:xlink="http://www.w3.org/1999/xlink" xmlns:sketch="http://www.bohemiancoding.com/sketch/ns">
    <!-- Generator: Sketch 3.5.2 (25235) - http://www.bohemiancoding.com/sketch -->
    <title>Untitled</title>
    <desc>Created with Sketch.</desc>
    <defs></defs>
    <g id="Page-1" stroke="none" stroke-width="1" fill="none" fill-rule="evenodd" sketch:type="MSPage">
        <g id="cardboard_white_24dp" sketch:type="MSLayerGroup">
            <path d="M20.74,6 L3.21,6 C2.55,6 2,6.57 2,7.28 L2,17.72 C2,18.42 2.55,19 3.23,19 L8.02,19 C8.54,19 8.98,18.67 9.16,18.21 L10.56,14.73 C10.79,14.14 11.35,13.72 12,13.72 C12.65,13.72 13.21,14.14 13.45,14.73 L14.84,18.21 C15.03,18.67 15.47,19 15.95,19 L20.74,19 C21.45,19 22,18.43 22,17.72 L22,7.28 C22,6.58 21.45,6 20.74,6 L20.74,6 Z M7.5,14.62 C6.33,14.62 5.37,13.67 5.37,12.5 C5.37,11.33 6.33,10.37 7.5,10.37 C8.68,10.37 9.62,11.33 9.62,12.5 C9.62,13.67 8.67,14.62 7.5,14.62 L7.5,14.62 Z M16.5,14.62 C15.33,14.62 14.37,13.67 14.37,12.5 C14.37,11.33 15.33,10.37 16.5,10.37 C17.67,10.37 18.62,11.33 18.62,12.5 C18.62,13.67 17.67,14.62 16.5,14.62 L16.5,14.62 Z" id="Shape" fill="#000000" sketch:type="MSShapeGroup"></path>
            <path d="M0,0 L24,0 L24,24 L0,24 L0,0 L0,0 Z" id="Shape" sketch:type="MSShapeGroup"></path>
        </g>
    </g>
</svg>